<?xml version="1.0" encoding="utf-8"?>
<!-- Generator: Adobe Illustrator 24.1.1, SVG Export Plug-In . SVG Version: 6.00 Build 0)  -->
<svg version="1.1" id="Layer_1" xmlns="http://www.w3.org/2000/svg" xmlns:xlink="http://www.w3.org/1999/xlink" x="0px" y="0px"
	 viewBox="0 0 921.7 171.4" style="enable-background:new 0 0 921.7 171.4;" xml:space="preserve">
<style type="text/css">
	.st0{fill:#54BF98;}
	.st1{fill:#FAFAFA;}
</style>
<g>
	<g>
		<path class="st0" d="M599.3,154.9h61l3.4,14.6H562.1l79.2-153.4h-67.5l3.4-14.6h101.1L599.3,154.9z"/>
		<path class="st0" d="M773.8,8.3c7.8,4.6,13.9,10.7,18.5,18.5c4.6,7.8,6.8,16.2,6.8,25.3v117.4h-29.5v-33.9h-42.5v33.9h-29.5V52.1
			c0-9.1,2.3-17.6,6.8-25.3c4.6-7.8,10.7-13.9,18.5-18.5c7.8-4.6,16.2-6.8,25.3-6.8C757.5,1.4,766,3.7,773.8,8.3z M769.6,52.1
			c0-6.6-1-12.6-2.9-18.1s-4.5-9.9-7.8-13.2c-3.3-3.3-6.8-4.9-10.7-4.9c-3.8,0-7.4,1.6-10.6,4.9c-3.2,3.3-5.8,7.7-7.7,13.2
			c-1.9,5.5-2.9,11.6-2.9,18.1V121h42.5V52.1z"/>
		<path class="st0" d="M911.6,100.4c-5.5,9.8-13.1,17.7-22.7,23.8l31,45.4h-29.5l-24.5-35.8c-6.1,1.3-12.1,1.9-18,1.9v33.9h-29.5
			V1.4h29.5c13.4,0,25.6,3,36.6,9c11,6,19.6,14.1,25.9,24.4c6.3,10.2,9.5,21.5,9.5,33.9C919.8,80,917.1,90.6,911.6,100.4z
			 M868,113.7c6.6-4.7,11.9-11.1,16.1-19.1c4.2-8,6.2-16.6,6.2-25.9c0-9.3-2.1-18-6.2-26c-4.2-8.1-9.5-14.5-16.1-19.2
			c-6.6-4.7-13.3-7.1-20.2-7.1v104.4C854.7,120.8,861.4,118.4,868,113.7z"/>
	</g>
	<g>
		<path class="st1" d="M541.9,86.7c-4-4.2-8.4-7.8-13.2-11c-4.8-3.2-10.7-6.7-17.8-10.6c-9.4-5.4-16.3-10-20.6-13.8
			c-2.8-2.4-4.7-5.2-5.6-8.3c-0.4,2.1-1.2,4.4-2.2,6.7c-1.9,4.4-5.1,7.5-9.1,9.2c0.7,4.6,2.1,12.2,5.2,21.5c4,2.6,8.8,5.4,14.2,8.5
			c5.8,3.4,10.4,6.2,13.9,8.4c3.5,2.2,6.6,4.7,9.1,7.4c6.2,6.4,9.4,13.7,9.4,21.8c0,7.2-2.5,13.4-7.6,18.5c-5,5.1-11.9,7.7-20.5,7.7
			c-7.5,0-13.4-1.9-17.5-5.6c-4.2-3.8-7-7.6-8.4-11.6c0-0.1-0.1-0.2-0.1-0.4c-1-2.7-1.6-4.7-1.8-6.1c0.3-0.2,0.5-0.4,0.8-0.6
			c-0.2-0.2-0.3-0.4-0.5-0.7l0.7-0.6c0,0,8.2-10.1,8.2-23.1c0-0.9,0-1.8-0.1-2.8c-0.3-3.4-1.1-7.2-2.6-11.1
			c-2.2-5.6-3.9-10.8-5.1-15.4c-3.3-12.4-3.7-20.5-3.7-20.5c2.4,0,7.5-0.8,10.1-6.9c1.6-3.7,2.2-6.6,2.2-8.9c0-2.7-0.2-7.9-0.8-9.2
			c-1-2.1-5.1,0.6-6-0.1c-2.5-1.6-2.8-8.1-5.6-9.2c-1.1-0.4-2.7-0.2-4.4,0.4c-3.1,1.1-6.5,3.4-7.8,5.2c-1.8,2.5-3.7,11-4.1,13
			c-7.6,2.6-18.7,6.4-21.5,6.9c-4.4,0.9-16.1,5.7-16.6,5.3c-0.2-0.1-4,1.6-10.7-2.4c-1.1-0.8-2.2-1.5-3.2-2.2V16.1h33.2
			c-0.2,6.1,0.2,12.1,1.7,15.5c1.7,3.8,5.6,4,8.7,3.5c2.5-0.4,4.4-1.3,4.4-1.3s-0.2-0.6-0.6-1.6c-1.6-4.7-6-18.6-6.5-30.6l0,0h0
			h-6.6H431h-25.1h-73.1v14.6h36v153.4h29.5v-6.9c2.8-0.4,5.3-0.8,6.8-1.3c3.5-1.2,21.5-11.9,26.4-16.9l9.3-5.2l0.4-0.2l-17.8-9.2
			l-1.4,1.5l-19,20.7c0,0-2.2,0.6-4.7,1.3v-15.3c2-1,4.3-2.4,6.8-3.8l0,0c1.2-0.6,2.4-1.4,3.8-2.2c1.4-0.8,2.8-1.6,4.2-2.4l0-0.1
			c4.6-2.7,9.2-5.2,11.2-5.1c2.2,0.2,8.9,4.4,15.2,7.7c3.6,1.8,7,3.4,9.5,3.8c0.8,0.1,1.9,0,3.2-0.2c0.4,1.7,1,3.7,1.7,5.8
			c0,0,0,0.1,0,0.1c2,6.3,6.8,12.6,14.4,18.8c7.6,6.2,18.8,9.4,33.7,9.4c10.4,0,19.6-2.4,27.6-7.2c8-4.8,14.2-11.1,18.5-19
			c4.3-7.8,6.5-16.1,6.5-24.7C554.7,106,550.4,95.3,541.9,86.7z M400.8,122.4c-0.8,0.8-1.6,1.6-2.5,2.4V58c0.3,0.3,0.6,0.5,0.9,0.8
			l0.3-0.4c4.1,2.8,8.4,5.2,11.6,6.9c3.3,1.8,12.3-1.8,16.3-0.9c11.3,2.3,8,8.2,11.3,31.5c0.6,4.3,7.6,12.2,4.5,9.7
			c0,0-9.2,0-20.2-1.1c-1.6-0.2-4.7,2-8.2,5l0,0C410.9,112.9,405.8,117.4,400.8,122.4C400.9,122.3,400.8,122.3,400.8,122.4
			L400.8,122.4z"/>
		<path class="st1" d="M475.3,22.5c4.9-0.6,7.2,1.7,8.4,4c0.5,1,0.8,2.4,1.1,4.3c1.2-4,3.7-7.1,7.5-9.4c5.6-3.4,11.3-5.2,17-5.2
			c7,0,13.2,2.1,18.5,6.4c5.3,4.2,8.7,8.4,10.2,12.4c1.5,4,2.3,6.1,2.3,6.2l8.6-13.7c-2.9-7.7-8.2-14-16.1-18.8
			c-7.8-4.9-17.5-7.3-29-7.3c-8.5,0-16.5,1.8-24.1,5.4c-4.3,2-8.1,4.5-11.4,7.4c0.2,0.1,0.4,0.1,0.6,0.2
			C472.8,15.9,474.3,19.7,475.3,22.5z"/>
		<path class="st1" d="M79.3,75.6c-4.8-3.2-10.7-6.7-17.8-10.6C52,59.6,45.2,55,40.8,51.3c-4.3-3.8-6.5-8.4-6.5-13.8
			c0-7.2,2.8-12.5,8.4-16c5.6-3.4,11.3-5.2,17-5.2c7,0,13.2,2.1,18.5,6.4c5.3,4.2,8.7,8.4,10.2,12.4c1.5,4,2.3,6.1,2.3,6.2l8.6-13.7
			c-2.9-7.7-8.2-14-16.1-18.8c-7.8-4.9-17.5-7.3-29-7.3c-8.5,0-16.5,1.8-24.1,5.4c-7.6,3.6-13.7,8.5-18.4,14.8
			c-4.6,6.2-7,13.1-7,20.6c0,7.7,1.8,14.4,5.4,20c3.6,5.7,7.9,10.4,13,14c5,3.7,11.7,7.8,20,12.5c5.8,3.4,10.4,6.2,13.9,8.4
			c3.5,2.2,6.6,4.7,9.1,7.4c6.2,6.4,9.4,13.7,9.4,21.8c0,7.2-2.5,13.4-7.6,18.5c-5,5.1-11.9,7.7-20.5,7.7c-7.5,0-13.4-1.9-17.5-5.6
			c-4.2-3.8-7-7.6-8.4-11.6c-1.4-4-2.2-6.6-2.2-7.9h-18c0,2.9,1,7.5,3,13.8c2,6.3,6.8,12.6,14.4,18.8c7.6,6.2,18.8,9.4,33.7,9.4
			c10.4,0,19.6-2.4,27.6-7.2c8-4.8,14.2-11.1,18.5-19c4.3-7.8,6.5-16.1,6.5-24.7c0-12.6-4.2-23.3-12.7-31.9
			C88.5,82.5,84.1,78.8,79.3,75.6z"/>
		<path class="st1" d="M181.5,154.9c-9.6,0.2-16.6-2-21-6.5c-4.4-4.5-6.6-12-6.6-22.6V1.4h-29.5v120c0,17.4,4.2,29.8,12.7,37.1
			c8.5,7.3,18.2,10.9,29,10.9h50.7l-3.4-14.6H181.5z"/>
		<path class="st1" d="M302.7,12.7c-8.6-7.5-17.9-11.3-28-11.3c-9.9,0-19.2,3.8-27.7,11.3c-8.6,7.5-15.3,17.7-20.3,30.6
			c-5,12.9-7.4,26.9-7.4,42.1c0,15.2,2.5,29.3,7.4,42.1c5,12.9,11.7,23.1,20.3,30.6c8.6,7.5,17.8,11.3,27.7,11.3
			c10.1,0,19.4-3.8,28-11.3c8.6-7.5,15.3-17.7,20.3-30.6c5-12.9,7.4-26.9,7.4-42.1c0-15.2-2.5-29.2-7.4-42.1
			C318,30.5,311.2,20.3,302.7,12.7z M294.8,120.4c-2.1,10.6-4.9,19.1-8.4,25.3c-3.5,6.2-7.4,9.4-11.8,9.4c-4.2,0-8-3.1-11.5-9.4
			c-3.5-6.2-6.3-14.7-8.4-25.3c-2.1-10.6-3.1-22.3-3.1-34.9c0-12.6,1-24.3,3.1-34.9c2.1-10.6,4.9-19.1,8.4-25.3
			c3.5-6.2,7.4-9.4,11.5-9.4c4.3,0,8.2,3.1,11.8,9.4c3.5,6.2,6.3,14.7,8.4,25.3c2.1,10.6,3.1,22.3,3.1,34.9
			C298,98.1,296.9,109.8,294.8,120.4z"/>
	</g>
</g>
</svg>
